# Blender v2.75 (sub 0) OBJ File: ''
# www.blender.org
v 2.000000 0.000000 -1.000000
v 2.000000 1.000000 -1.000000
v 2.000000 0.000000 1.000000
v 2.000000 1.000000 1.000000
v -2.000000 0.000000 -1.000000
v -2.000000 1.000000 -1.000000
v -2.000000 0.000000 1.000000
v -2.000000 1.000000 1.000000
vt 0.499803 0.628709
vt 0.499803 0.535296
vt 0.000216 0.535296
vt 0.499655 0.628593
vt 0.499655 0.535472
vt 0.000203 0.535472
vt 0.000216 0.628709
vt 0.000203 0.628593
vt 0.632890 0.908482
vt 0.882890 0.908482
vt 0.882890 0.658482
vt 0.499219 0.302702
vt 0.000390 0.302702
vt 0.000390 0.001139
vt 0.632890 0.658482
vt 0.499219 0.001139
vn 1.000000 0.000000 0.000000
vn 0.000000 0.000000 1.000000
vn -1.000000 0.000000 0.000000
vn 0.000000 0.000000 -1.000000
vn 0.000000 -1.000000 0.000000
vn 0.000000 1.000000 0.000000
s off
f 4/1/1 3/2/1 1/3/1
f 8/4/2 7/5/2 3/6/2
f 6/7/3 5/3/3 7/2/3
f 2/8/4 1/6/4 5/5/4
f 3/9/5 7/10/5 5/11/5
f 8/12/6 4/13/6 2/14/6
f 2/7/1 4/1/1 1/3/1
f 4/8/2 8/4/2 3/6/2
f 8/1/3 6/7/3 7/2/3
f 6/4/4 2/8/4 5/5/4
f 1/15/5 3/9/5 5/11/5
f 6/16/6 8/12/6 2/14/6
