#  
# 
mtllib nokia.mtl
v -0.036276 0.167740 -0.071143
v 0.036276 0.167740 -0.071143
v 0.044707 0.247464 -0.082343
v -0.040960 -0.001206 -0.006837
v -0.050327 0.007914 -0.009063
v 0.040960 -0.000922 -0.005231
v 0.050327 0.007999 -0.008579
v -0.050327 0.089074 -0.033787
v 0.050327 0.088830 -0.035666
v -0.050327 0.163594 -0.047454
v 0.050327 0.163418 -0.049444
v 0.050327 0.165679 -0.035629
v -0.050327 0.165679 -0.035629
v 0.044707 0.166474 -0.031121
v -0.044707 0.166474 -0.031121
v 0.050327 0.010073 0.003182
v 0.040960 0.001064 0.006034
v 0.050327 0.091154 -0.022488
v 0.044707 0.091949 -0.017980
v 0.044707 0.018325 0.005238
v 0.036276 0.010217 0.007805
v -0.040960 0.001064 0.006034
v -0.036276 0.010217 0.007805
v -0.050327 0.010073 0.003182
v -0.044707 0.018325 0.005238
v -0.050327 0.091154 -0.022488
v -0.044707 0.091949 -0.017980
v 0.040960 0.153789 -0.047693
v -0.040960 0.153789 -0.049324
v 0.050327 0.163157 -0.049440
v -0.050327 0.163157 -0.049932
v 0.050327 0.247464 -0.062080
v -0.050327 0.247463 -0.060170
v 0.050327 0.323138 -0.062731
v -0.050327 0.323138 -0.060706
v 0.050327 0.323138 -0.048698
v -0.050327 0.323138 -0.048698
v 0.044707 0.323138 -0.044121
v -0.044707 0.323138 -0.044121
v -0.050328 0.163157 -0.065600
v -0.050328 0.247463 -0.076801
v -0.050328 0.323138 -0.076801
v 0.045488 0.481934 -0.070666
v 0.045488 0.348866 -0.082308
v 0.037110 0.481697 -0.067954
v 0.037110 0.348629 -0.079596
v 0.037110 0.480929 -0.059178
v 0.039535 0.487475 -0.060374
v 0.044562 0.487332 -0.058746
v 0.047669 0.487705 -0.063006
v 0.044562 0.488078 -0.067266
v 0.039535 0.487935 -0.065639
v 0.050666 0.481313 -0.063566
v 0.045488 0.480692 -0.056466
v 0.037110 0.347861 -0.070819
v 0.043173 0.333314 -0.076514
v 0.050666 0.348245 -0.075208
v 0.045488 0.347624 -0.068108
v -0.040960 0.153789 -0.064356
v -0.044707 0.176170 -0.072263
v -0.044707 0.247463 -0.082343
v -0.044707 0.323138 -0.082343
v -0.044707 0.412229 -0.074718
v -0.036276 0.420660 -0.073871
v -0.050328 0.425444 -0.068328
v 0.040960 0.153789 -0.064356
v 0.050327 0.163157 -0.065600
v 0.044707 0.176170 -0.072263
v 0.050327 0.247464 -0.076801
v 0.050327 0.323138 -0.076801
v 0.044707 0.323138 -0.082343
v 0.050327 0.425444 -0.068328
v 0.044707 0.412229 -0.074718
v 0.036276 0.420660 -0.073871
v -0.040960 0.434812 -0.067387
v 0.040960 0.434812 -0.067387
v -0.050328 0.425444 -0.040226
v -0.044707 0.417813 -0.036495
v -0.040960 0.434812 -0.039284
v -0.036276 0.426243 -0.035648
v 0.040960 0.434812 -0.039284
v 0.036276 0.426243 -0.035648
v 0.050327 0.425444 -0.040226
v 0.044707 0.417813 -0.036495
vt 0.060200 0.355400
vt 0.337200 0.022800
vt 0.060200 0.053000
vt 0.134500 0.391600
vt 0.172500 0.427200
vt 0.135700 0.034900
vt 0.172900 -0.000800
vt 0.511000 0.427200
vt 0.509900 -0.000800
vt 0.821700 0.427200
vt 0.821000 -0.000800
vt 0.917600 0.815100
vt 0.991100 0.815100
vt 0.917600 0.237100
vt 0.991100 0.237100
vt 0.890000 0.783700
vt 0.917700 0.814200
vt 0.890000 0.237100
vt 0.917700 0.237100
vt 0.918800 1.024100
vt 0.881200 1.024100
vt 0.917200 0.787300
vt 0.881200 0.787300
vt 0.923300 0.328100
vt 0.881200 0.328100
vt 0.918800 0.001000
vt 0.881200 0.001000
vt 0.925300 0.667200
vt 0.881200 0.667200
vt 0.923300 0.340100
vt 0.881200 0.340100
vt 0.002100 0.415700
vt 0.002100 0.395200
vt 0.393400 0.415700
vt 0.393400 0.395200
vt 0.829300 0.415700
vt 0.789100 0.395200
vt 0.877700 0.381500
vt 0.832700 0.364400
vt 0.877700 0.039900
vt 0.832700 0.057000
vt 0.829300 0.005800
vt 0.789100 0.026300
vt 0.393400 0.005800
vt 0.393400 0.026300
vt 0.002100 0.005800
vt 0.002100 0.026300
vt 0.881200 0.245400
vt 0.881200 0.008600
vt 0.922300 0.245400
vt 0.920300 0.008600
vt 0.917700 0.705700
vt 0.920300 1.000000
vt 0.881200 0.705700
vt 0.881200 1.000000
vt 0.917700 0.710900
vt 0.881200 0.710900
vt 0.919000 0.357200
vt 0.881200 0.357200
vt 0.917200 0.770100
vt 0.881200 0.770100
vt 0.922300 0.230900
vt 0.881200 0.230900
vt 0.859600 0.409400
vt 0.886000 0.442000
vt 0.596000 0.409400
vt 0.569700 0.442000
vt 0.886000 0.736100
vt 0.569700 0.736100
vt 0.886000 1.000100
vt 0.569700 1.000100
vt 0.887500 0.324000
vt 0.933300 0.323400
vt 0.887500 0.848900
vt 0.933300 0.848900
vt 0.999000 0.349700
vt 0.999000 0.822900
vt 0.999000 1.000000
vt 0.999000 0.705700
vt 0.999000 0.357200
vt 0.999000 0.710900
vt 0.321600 0.369100
vt 0.321600 0.047400
vt 0.427900 0.368500
vt 0.356800 0.046800
vt 0.474100 0.366700
vt 0.482200 0.382500
vt 0.512800 0.382100
vt 0.540900 0.383000
vt 0.527400 0.383900
vt 0.457800 0.383600
vt 0.642900 0.369100
vt 0.560400 0.367600
vt 0.516400 0.366100
vt 0.403000 0.045000
vt 0.327800 0.015100
vt 0.321600 0.045900
vt 0.321600 0.044400
vt 0.562500 0.044400
vt 0.645000 0.045900
vt 0.689000 0.047400
vt 0.011700 0.372100
vt 0.089500 0.385600
vt 0.044300 0.405700
vt 0.337200 0.385600
vt 0.337200 0.405700
vt 0.600200 0.385600
vt 0.600200 0.405700
vt 0.909800 0.385600
vt 0.939100 0.355400
vt 0.955700 0.405700
vt 0.011700 0.036200
vt 0.044300 0.002600
vt 0.089500 0.022800
vt 0.337200 0.002600
vt 0.600200 0.002600
vt 0.600200 0.022800
vt 0.955700 0.002600
vt 0.909800 0.022800
vt 0.939100 0.053000
vt 0.988300 0.372100
vt 0.988300 0.036200
vt 0.500000 0.500000
vt 0.000000 1.000000
vt 0.000300 0.423600
vt 0.029300 0.423600
vt 0.000300 0.961200
vt 0.029300 0.921100
vt 0.048600 1.010400
vt 0.072700 0.965400
vt 0.531400 1.010400
vt 0.507300 0.965400
vt 0.579700 0.961200
vt 0.550700 0.921100
vt 0.579700 0.423600
vt 0.550700 0.423600
vt 0.999000 0.008600
vt 0.999000 0.245400
vt 0.999000 0.787300
vt 0.999000 1.024100
vt 0.999000 0.382100
vt 0.999000 0.618900
vt 0.881200 0.382100
vt 0.881200 0.618900
vt 0.999000 0.003100
vt 0.999000 0.153800
vt 0.881200 0.003100
vt 0.881200 0.153800
vt 0.999000 0.001000
vt 0.881200 0.354700
vt 0.919000 0.354700
vt 0.999000 0.354700
vt 0.999000 0.214500
vt 0.881200 0.214500
vt 0.999000 0.786500
vt 0.881200 0.786500
vt 0.881200 0.671300
vt 0.925300 0.671300
vt 0.881200 0.998400
vt 0.999000 0.671300
vt 0.999000 0.998400
vt 0.999000 0.340100
vt 0.999000 0.667200
vt 0.999000 0.328100
vt 0.999000 0.230900
vt 0.999000 0.770100
vn -0.049257 -0.306253 -0.950652
vn 0.283700 -0.088107 -0.954833
vn 0.098758 -0.291299 -0.951506
vn -0.361095 -0.927213 -0.099155
vn -0.646779 -0.377117 -0.662862
vn 0.399030 -0.818384 -0.413526
vn 0.646504 -0.397992 -0.650838
vn -0.561632 -0.218146 -0.798090
vn 0.701132 -0.161901 -0.694357
vn -0.675161 0.206091 -0.708243
vn 0.402844 0.736961 -0.542741
vn 0.646931 0.759941 0.062624
vn -0.556322 0.792383 0.250160
vn 0.323923 0.410688 0.852260
vn -0.229804 0.828974 0.509873
vn 0.812952 -0.193457 0.549211
vn 0.287576 -0.627155 0.723808
vn 0.903195 0.093081 0.418958
vn 0.284738 0.254830 0.924100
vn 0.259987 0.165136 0.951384
vn 0.080447 -0.026276 0.996399
vn -0.257332 -0.526383 0.810327
vn -0.107456 0.114536 0.987579
vn -0.759606 -0.249916 0.600391
vn -0.329753 0.221442 0.917692
vn -0.929502 0.095645 0.356120
vn -0.335032 0.203955 0.919858
vn 0.247688 -0.902341 0.352702
vn 0.605884 -0.254982 0.753563
vn -0.286172 -0.565325 0.773614
vn -0.604266 -0.272713 0.748619
vn 0.802911 0.055208 0.593524
vn -0.796228 0.027497 0.604327
vn 0.806391 -0.261177 0.530564
vn -0.800653 -0.535478 0.268624
vn 0.539842 -0.753044 0.376110
vn -0.639699 -0.745201 0.188177
vn 0.221137 -0.751762 0.621235
vn -0.250801 -0.280435 0.926511
vn -0.847926 -0.250221 -0.467299
vn -0.887082 -0.020356 -0.461104
vn -0.920927 0.021882 -0.389050
vn 0.308908 0.300027 -0.902493
vn 0.161962 -0.100406 -0.981658
vn -0.784478 0.269906 -0.558306
vn -0.871700 -0.145360 -0.467971
vn -0.793756 0.169988 0.583972
vn -0.461043 0.846950 0.264718
vn 0.057344 0.593829 0.802515
vn 0.589648 0.779443 0.211524
vn 0.318003 0.836909 -0.445418
vn -0.485885 0.708792 -0.511368
vn 0.975402 0.218696 0.027039
vn 0.293893 0.138340 0.945738
vn -0.700705 -0.244911 0.670064
vn 0.000000 -0.996185 -0.087130
vn 0.971770 -0.172185 -0.161077
vn 0.438612 -0.261513 0.859767
vn -0.335673 -0.810663 -0.479690
vn -0.234901 -0.228797 -0.944670
vn -0.367962 -0.061220 -0.927793
vn -0.282205 0.055208 -0.957732
vn -0.430403 0.144475 -0.890988
vn -0.096561 0.256661 -0.961638
vn -0.859035 0.329936 -0.391369
vn 0.342204 -0.755181 -0.559069
vn 0.790826 -0.313730 -0.525468
vn 0.424207 -0.184851 -0.886471
vn 0.881100 -0.043306 -0.470870
vn 0.943907 0.009095 -0.330027
vn 0.375134 0.037141 -0.926206
vn 0.786065 0.274453 -0.553819
vn 0.243660 0.191015 -0.950835
vn 0.048219 0.274331 -0.960418
vn -0.233406 0.705496 -0.669149
vn 0.339946 0.804285 -0.487350
vn -0.780450 0.191443 0.595141
vn -0.258431 0.041139 0.965148
vn -0.373547 0.777093 0.506516
vn -0.080782 0.232521 0.969207
vn 0.254921 0.676748 0.690634
vn 0.109134 0.096561 0.989319
vn 0.871151 0.275857 0.406140
vn 0.329997 -0.016236 0.943815
usemtl nokia
s 1
f 1/1/1 3/2/2 2/3/3
f 4/4/4 5/5/5 6/6/6
f 6/6/6 5/5/5 7/7/7
f 5/5/5 8/8/8 7/7/7
f 7/7/7 8/8/8 9/9/9
f 8/8/8 10/10/10 9/9/9
f 9/9/9 10/10/10 11/11/11
f 12/12/12 11/13/11 13/14/13
f 13/14/13 11/13/11 10/15/10
f 14/16/14 12/17/12 15/18/15
f 15/18/15 12/17/12 13/19/13
f 7/20/7 16/21/16 6/22/6
f 16/21/16 17/23/17 6/22/6
f 9/24/9 18/25/18 7/26/7
f 18/25/18 16/27/16 7/26/7
f 11/28/11 12/29/12 9/30/9
f 12/29/12 18/31/18 9/30/9
f 12/32/12 14/33/14 18/34/18
f 14/33/14 19/35/19 18/34/18
f 18/34/18 19/35/19 16/36/16
f 19/35/19 20/37/20 16/36/16
f 16/36/16 20/37/20 17/38/17
f 20/37/20 21/39/21 17/38/17
f 17/38/17 21/39/21 22/40/22
f 21/39/21 23/41/23 22/40/22
f 22/40/22 23/41/23 24/42/24
f 23/41/23 25/43/25 24/42/24
f 24/42/24 25/43/25 26/44/26
f 25/43/25 27/45/27 26/44/26
f 26/44/26 27/45/27 13/46/13
f 13/46/13 27/45/27 15/47/15
f 15/47/15 27/45/27 14/33/14
f 14/33/14 27/45/27 19/35/19
f 27/45/27 25/43/25 19/35/19
f 25/43/25 23/41/23 19/35/19
f 19/35/19 23/41/23 20/37/20
f 23/41/23 21/39/21 20/37/20
f 22/48/22 24/49/24 4/50/4
f 24/49/24 5/51/5 4/50/4
f 8/52/8 5/53/5 26/54/26
f 26/54/26 5/53/5 24/55/24
f 8/56/8 26/57/26 10/58/10
f 26/57/26 13/59/13 10/58/10
f 6/60/6 17/61/17 4/62/4
f 17/61/17 22/63/22 4/62/4
f 28/64/28 30/65/29 29/66/30
f 29/66/30 30/65/29 31/67/31
f 30/65/29 32/68/32 31/67/31
f 31/67/31 32/68/32 33/69/33
f 32/68/32 34/70/34 33/69/33
f 33/69/33 34/70/34 35/71/35
f 34/72/34 36/73/36 35/74/35
f 35/74/35 36/73/36 37/75/37
f 36/73/36 38/76/38 37/75/37
f 37/75/37 38/76/38 39/77/39
f 31/53/31 33/52/33 40/78/40
f 33/52/33 41/79/41 40/78/40
f 35/58/35 42/80/42 33/56/33
f 33/56/33 42/80/42 41/81/41
f 43/82/43 44/83/44 45/84/45
f 44/83/44 46/85/46 45/84/45
f 46/85/46 47/86/47 45/84/45
f 45/84/45 47/86/47 48/87/48
f 47/86/47 49/88/49 48/87/48
f 49/88/49 50/89/50 48/87/48
f 50/89/50 51/90/51 48/87/48
f 51/90/51 52/91/52 48/87/48
f 48/87/48 52/91/52 45/84/45
f 45/84/45 52/91/52 43/92/43
f 52/91/52 51/90/51 43/92/43
f 43/92/43 51/90/51 53/93/53
f 51/90/51 50/89/50 53/93/53
f 53/93/53 50/89/50 54/94/54
f 50/89/50 49/88/49 54/94/54
f 49/88/49 47/86/47 54/94/54
f 54/94/54 47/86/47 55/95/55
f 47/86/47 46/85/46 55/95/55
f 55/95/55 46/85/46 56/96/56
f 46/85/46 44/83/44 56/96/56
f 44/83/44 57/97/57 56/96/56
f 57/97/57 58/98/58 56/96/56
f 56/96/56 58/98/58 55/95/55
f 55/95/55 58/99/58 54/94/54
f 54/94/54 58/99/58 53/93/53
f 58/99/58 57/100/57 53/93/53
f 53/93/53 57/100/57 43/92/43
f 57/100/57 44/101/44 43/92/43
f 1/1/1 59/102/59 60/103/60
f 59/102/59 40/104/40 60/103/60
f 60/103/60 40/104/40 61/105/61
f 40/104/40 41/106/41 61/105/61
f 61/105/61 41/106/41 62/107/62
f 41/106/41 42/108/42 62/107/62
f 42/108/42 63/109/63 62/107/62
f 62/107/62 63/109/63 64/110/64
f 63/109/63 42/108/42 65/111/65
f 66/112/66 2/3/3 67/113/67
f 2/3/3 68/114/68 67/113/67
f 67/113/67 68/114/68 69/115/69
f 69/115/69 68/114/68 3/2/2
f 68/114/68 2/3/3 3/2/2
f 69/115/69 3/2/2 70/116/70
f 3/2/2 71/117/71 70/116/70
f 70/116/70 71/117/71 72/118/72
f 72/118/72 71/117/71 73/119/73
f 73/119/73 71/117/71 62/107/62
f 62/107/62 71/117/71 61/105/61
f 71/117/71 3/2/2 61/105/61
f 61/105/61 3/2/2 60/103/60
f 3/2/2 1/1/1 60/103/60
f 73/119/73 62/107/62 74/120/74
f 62/107/62 64/110/64 74/120/74
f 63/109/63 65/111/65 64/110/64
f 65/111/65 75/121/75 64/110/64
f 64/110/64 75/121/75 74/120/74
f 75/121/75 76/122/76 74/120/74
f 72/123/72 73/123/73 76/124/76
f 76/124/76 73/123/73 74/124/74
f 59/102/59 1/1/1 66/112/66
f 66/112/66 1/1/1 2/3/3
f 37/125/37 39/126/39 77/127/77
f 39/126/39 78/128/78 77/127/77
f 77/127/77 78/128/78 79/129/79
f 78/128/78 80/130/80 79/129/79
f 79/129/79 80/130/80 81/131/81
f 80/130/80 82/132/82 81/131/81
f 81/131/81 82/132/82 83/133/83
f 82/132/82 84/134/84 83/133/83
f 83/133/83 84/134/84 36/135/36
f 36/135/36 84/134/84 38/136/38
f 38/136/38 84/134/84 39/126/39
f 84/134/84 82/132/82 39/126/39
f 39/126/39 82/132/82 78/128/78
f 82/132/82 80/130/80 78/128/78
f 40/137/40 59/138/59 31/51/31
f 31/51/31 59/138/59 29/50/30
f 28/22/28 66/139/66 30/20/29
f 30/20/29 66/139/66 67/140/67
f 75/141/75 65/142/65 79/143/79
f 79/143/79 65/142/65 77/144/77
f 72/145/72 76/146/76 83/147/83
f 83/147/83 76/146/76 81/148/81
f 77/27/77 65/149/65 37/150/37
f 37/150/37 65/149/65 35/151/35
f 65/149/65 42/152/42 35/151/35
f 75/153/75 79/154/79 76/155/76
f 79/154/79 81/156/81 76/155/76
f 36/157/36 34/158/34 83/159/83
f 34/158/34 70/160/70 83/159/83
f 83/159/83 70/160/70 72/161/72
f 69/162/69 70/163/70 32/30/32
f 32/30/32 70/163/70 34/28/34
f 30/26/29 67/149/67 32/24/32
f 32/24/32 67/149/67 69/164/69
f 29/62/30 59/165/59 28/60/28
f 28/60/28 59/165/59 66/166/66
